<?xml version="1.0" standalone="no"?>
<!DOCTYPE svg PUBLIC "-//W3C//DTD SVG 20010904//EN"
 "http://www.w3.org/TR/2001/REC-SVG-20010904/DTD/svg10.dtd">
<svg version="1.0" xmlns="http://www.w3.org/2000/svg"
 width="442.000000pt" height="442.000000pt" viewBox="0 0 442.000000 442.000000"
 preserveAspectRatio="xMidYMid meet">

<g transform="translate(0.000000,442.000000) scale(0.100000,-0.100000)"
fill="#000000" stroke="none">
<path d="M2143 3927 c-330 -283 -577 -585 -736 -903 -68 -136 -131 -318 -152
-444 -22 -126 -22 -322 -1 -424 76 -352 330 -624 683 -733 81 -25 102 -27 263
-27 154 -1 184 2 255 22 350 101 602 357 692 700 32 122 36 327 10 463 -76
389 -302 774 -672 1144 -71 72 -164 158 -206 192 l-75 61 -61 -51z m195 -922
c46 -9 116 -34 172 -62 79 -38 109 -60 175 -127 88 -89 152 -199 180 -311 20
-78 20 -235 0 -321 -55 -238 -256 -439 -500 -499 -88 -22 -240 -22 -323 -1
-226 59 -408 227 -483 446 -34 99 -38 279 -10 386 51 186 180 343 352 428 146
72 283 91 437 61z"/>
<path d="M2105 2776 c-130 -31 -242 -121 -301 -241 -31 -63 -37 -86 -42 -163
-6 -116 19 -203 83 -291 84 -115 188 -171 331 -179 75 -4 105 -1 161 16 126
39 237 139 284 259 20 48 24 76 24 169 0 107 -1 112 -37 185 -95 192 -303 294
-503 245z m272 -82 c149 -71 244 -250 215 -407 -33 -176 -153 -296 -327 -328
-153 -28 -328 58 -403 198 -153 287 84 619 407 570 29 -4 78 -19 108 -33z"/>
<path d="M2089 2666 c-20 -7 -53 -23 -73 -35 -42 -26 -99 -92 -88 -102 4 -4
46 -18 95 -30 76 -20 89 -21 101 -9 13 14 56 151 56 178 0 16 -45 15 -91 -2z"/>
<path d="M2231 2644 c30 -115 41 -144 57 -153 18 -9 176 22 195 38 13 13 -64
91 -115 117 -27 14 -72 28 -98 31 l-49 6 10 -39z"/>
<path d="M1883 2458 c-25 -47 -25 -179 1 -231 l19 -38 68 67 c38 38 69 75 69
84 0 12 -125 150 -136 150 -2 0 -11 -15 -21 -32z"/>
<path d="M2432 2426 c-34 -35 -62 -70 -62 -78 1 -7 32 -46 70 -87 l68 -74 17
39 c26 62 30 143 10 208 -10 31 -23 56 -30 56 -6 0 -40 -29 -73 -64z"/>
<path d="M2155 2395 c-14 -13 -25 -36 -25 -50 0 -35 42 -75 79 -75 35 0 71 39
71 77 0 32 -42 73 -75 73 -14 0 -37 -11 -50 -25z"/>
<path d="M2021 2186 c-47 -12 -86 -27 -88 -33 -7 -19 62 -87 113 -112 26 -14
69 -26 95 -29 l48 -4 -10 38 c-30 115 -41 144 -57 152 -11 6 -47 1 -101 -12z"/>
<path d="M2292 2202 c-13 -9 -62 -152 -62 -181 0 -10 11 -12 44 -9 74 9 151
56 197 120 l20 27 -63 19 c-90 28 -121 33 -136 24z"/>
<path d="M470 934 c-99 -46 -162 -129 -176 -232 -16 -126 65 -211 201 -212 70
0 144 31 189 78 l29 31 -34 20 c-41 25 -43 25 -60 5 -22 -27 -66 -44 -114 -44
-38 0 -52 5 -76 29 -24 24 -29 38 -29 77 0 93 57 164 147 184 43 10 81 -2 108
-35 l20 -24 43 19 c47 21 51 34 19 71 -54 65 -168 79 -267 33z"/>
<path d="M847 953 c-6 -10 -97 -435 -97 -452 0 -8 14 -11 42 -9 l43 3 47 215
c26 118 47 223 47 233 1 13 -7 17 -38 17 -22 0 -42 -3 -44 -7z"/>
<path d="M2182 923 c-28 -112 -89 -419 -85 -425 2 -5 22 -8 43 -8 27 0 42 5
49 18 5 9 21 79 37 155 15 75 31 132 35 125 3 -7 14 -56 24 -108 33 -186 35
-191 58 -188 15 2 48 46 116 156 52 84 95 151 97 149 2 -1 -10 -61 -26 -132
-41 -180 -41 -177 17 -173 l47 3 48 220 c26 121 47 226 48 233 0 13 -117 18
-136 4 -5 -4 -45 -65 -89 -135 -51 -84 -81 -124 -85 -115 -4 7 -17 68 -30 136
l-22 122 -69 0 -68 0 -9 -37z"/>
<path d="M3267 946 c-167 -60 -255 -263 -167 -386 44 -62 155 -87 252 -58 36
11 128 80 128 97 0 4 -16 15 -36 25 -36 17 -37 17 -63 -7 -30 -29 -63 -40
-109 -39 -43 2 -69 17 -87 52 -73 141 140 327 240 208 l24 -29 46 22 45 21
-18 32 c-31 54 -76 76 -151 76 -36 -1 -83 -7 -104 -14z"/>
<path d="M1050 808 c-119 -64 -154 -232 -61 -295 45 -31 137 -32 197 -2 40 19
42 22 32 45 -9 19 -17 24 -32 19 -12 -3 -40 -9 -63 -12 -49 -6 -93 16 -93 47
0 18 9 20 123 22 l122 3 3 62 c3 56 0 65 -26 94 -26 29 -36 33 -93 37 -53 3
-72 -1 -109 -20z m134 -64 c9 -8 16 -24 16 -35 0 -17 -8 -19 -80 -19 -88 0
-95 7 -54 45 32 29 94 34 118 9z"/>
<path d="M1417 808 c-44 -19 -48 -24 -42 -47 9 -36 11 -37 50 -18 70 33 144
12 131 -37 -3 -12 -6 -24 -6 -29 0 -4 -11 0 -25 9 -19 12 -41 15 -87 12 -55
-4 -64 -8 -94 -41 -27 -29 -34 -45 -34 -77 0 -59 33 -90 97 -90 26 1 59 7 73
15 31 18 41 18 38 3 -2 -9 12 -14 39 -16 l41 -3 15 68 c39 171 41 189 28 220
-7 17 -24 35 -37 42 -40 18 -133 13 -187 -11z m112 -182 c13 -16 4 -45 -18
-63 -17 -13 -69 -17 -95 -7 -21 8 -20 43 1 66 20 22 95 25 112 4z"/>
<path d="M1755 818 c-20 -62 -65 -312 -57 -320 5 -5 25 -8 43 -6 l34 3 23 110
c26 125 41 145 103 145 58 0 62 -17 35 -143 -13 -58 -21 -109 -18 -112 3 -3
22 -5 43 -5 43 0 39 -8 68 132 26 122 27 170 3 191 -26 24 -108 22 -155 -3
l-37 -20 0 20 c0 17 -7 20 -40 20 -24 0 -42 -5 -45 -12z"/>
<path d="M2710 823 c0 -4 14 -77 30 -162 17 -85 30 -160 30 -168 0 -23 -39
-53 -68 -53 -23 0 -30 -6 -40 -33 -17 -46 -16 -47 23 -47 45 0 101 23 126 52
28 34 259 402 259 413 0 3 -20 5 -44 5 l-45 0 -66 -111 c-37 -60 -69 -108 -72
-106 -2 3 -12 51 -21 108 l-18 104 -47 3 c-26 2 -47 -1 -47 -5z"/>
<path d="M3645 817 c-58 -23 -67 -32 -60 -60 8 -31 13 -32 51 -12 63 33 143 9
130 -39 -3 -12 -6 -24 -6 -29 0 -4 -10 -1 -22 7 -13 8 -36 15 -53 16 -72 5
-88 0 -126 -39 -34 -34 -39 -45 -39 -84 0 -37 5 -49 26 -66 32 -25 106 -28
144 -6 31 18 41 18 38 3 -2 -8 11 -14 34 -16 47 -4 50 2 78 145 25 125 20 161
-26 182 -32 14 -130 13 -169 -2z m93 -191 c17 -10 0 -54 -24 -65 -27 -12 -64
-14 -88 -5 -34 13 -11 72 34 86 14 5 60 -5 78 -16z"/>
<path d="M3965 808 c-28 -115 -63 -302 -59 -309 3 -5 21 -9 40 -9 40 0 42 3
69 134 16 79 21 90 49 107 17 10 43 19 57 19 23 0 28 6 37 40 9 37 8 40 -12
40 -12 0 -38 -9 -59 -20 -35 -19 -38 -19 -35 -3 2 15 -5 19 -39 21 -37 3 -43
0 -48 -20z"/>
</g>
</svg>
